PathFileType	4	(X/Y/Z)	C:/Users/beibeiliu/ov580/test_trc/User3\sequence.27_training_dense_right.trc
DataRate	CameraRate	NumFrames	NumMarkers	Units	OrigDataRate	OrigDataStartFrame	OrigNumFrames
120	120	16	19	mm	120	139	276
Frame#	Time	ThumbCMC			ThumbMCP			ThumbIP			ThumbTip			IndexMCP			IndexPIP			IndexTip			MiddleMCP			MiddlePIP			MiddleTip			RingMCP			RingPIP			RingTip			PinkyMCP			PinkyPIP			PinkyTip			BackHand1			BackHand2			BackHand3	
		X0	Y0	Z0	X1	Y1	Z1	X2	Y2	Z2	X3	Y3	Z3	X4	Y4	Z4	X5	Y5	Z5	X6	Y6	Z6	X7	Y7	Z7	X8	Y8	Z8	X9	Y9	Z9	X10	Y10	Z10	X11	Y11	Z11	X12	Y12	Z12	X13	Y13	Z13	X14	Y14	Z14	X15	Y15	Z15	X16	Y16	Z16	X17	Y17	Z17	X18	Y18	Z18	
138	1.15	169.602	4.5387	31.3919	135.235	20.92	35.4417	101.73	19.7526	38.7513	80.8249	3.12351	46.8824	107.067	-8.44658	-14.8736	83.3701	5.55776	-21.2191	61.0449	13.3239	-20.2569	95.1024	-22.2218	-10.1651	68.5981	-6.41518	-12.7423	44.6243	5.25231	-7.87611	94.2399	-28.365	19.9329	85.3991	-7.52252	44.6145	116.264	-0.557225	56.1691	95.2301	-35.9169	37.5534	97.5397	-14.9326	54.9461	128.332	-14.2285	63.0172	143.11	-56.1706	17.0611	169.427	-62.6203	34.9893	170.725	-32.4149	12.7732	
139	1.15833	171.965	3.51532	29.4722	136.655	17.579	26.642	103.952	18.9386	26.4544	86.9823	1.83656	31.955	118.674	-5.96824	-27.6283	93.3043	5.09729	-34.7481	72.9419	12.3047	-37.356	106.161	-23.1157	-22.2538	78.2029	-9.73615	-28.0842	52.1846	2.72143	-26.794	101.433	-26.8363	6.45357	86.9104	-8.71895	27.0132	116.659	-1.83311	47.19	98.1554	-37.6817	27.2094	96.1061	-16.3944	41.1512	126.413	-12.7	53.7544	150.205	-53.6532	12.5983	175.618	-59.7012	33.1194	176.549	-31.7291	9.90513	
140	1.16667	172.436	5.82769	23.7849	137.837	22.7278	18.8003	108.367	18.5434	15.3049	87.9298	-0.627503	15.3155	131.924	-8.20339	-35.5419	103.623	-1.09606	-47.0969	83.438	8.74808	-56.5198	120.371	-25.8156	-32.428	92.1594	-13.5472	-45.2333	63.2781	-3.99552	-48.1027	105.268	-31.7754	-5.42972	90.9548	-9.00906	10.7971	115.384	-3.49232	37.1819	107.374	-42.2815	12.9908	96.7022	-19.4721	25.3426	126.327	-11.2038	42.3647	157.429	-55.2369	12.9041	178.192	-55.3889	31.6277	184.43	-26.2047	6.54073	
141	1.175	175.424	12.424	22.7557	137.479	18.1823	9.75126	107.686	15.1285	-1.09111	92.265	-5.46389	0.543799	142.403	-7.99989	-47.7978	120.322	-5.94504	-59.8758	98.3353	0.0807469	-71.3856	132.057	-30.0381	-41.7445	109.127	-17.943	-60.0045	80.6447	-9.8269	-68.8399	116.524	-29.8951	-20.1599	96.7125	-14.069	-2.38129	112.852	-2.63689	21.2971	113.522	-46.4082	1.42069	102.054	-21.4053	13.7065	122.059	-15.055	32.9368	167.472	-50.448	3.28858	185.086	-54.3156	32.1805	188.694	-26.2586	6.87082	
142	1.18333	172.959	14.2538	15.8632	138.784	20.9903	2.23144	111.444	10.6218	-13.1495	97.6555	-9.3083	-13.8988	155.369	-9.30368	-52.87	137.34	-3.71253	-70.8062	118.542	-1.17843	-87.3478	146.045	-29.0612	-53.1186	125.409	-24.4076	-69.8635	93.9986	-14.2702	-86.6356	125.616	-33.8205	-31.161	105.248	-18.3271	-20.9542	119.367	-6.60099	12.4862	123.002	-46.9451	-11.8628	107.89	-26.4433	-2.70188	124.141	-16.6962	24.6619	177.557	-47.2306	3.20093	189.062	-51.545	26.8363	197.314	-18.491	3.80026	
143	1.19167	173.637	14.0622	14.3305	141.959	18.9841	-2.61803	116.705	6.76725	-23.6771	106.292	-17.807	-30.5996	169.887	-3.33245	-55.1913	151.648	-0.417818	-79.9407	136.296	-3.5433	-97.3088	163.829	-25.8361	-57.4921	144.365	-23.0748	-79.6396	116.514	-15.4167	-100.674	144.949	-35.6486	-38.2088	113.889	-23.9652	-27.0039	121.772	-11.5825	0.734112	138.564	-50.3623	-21.1392	117.004	-33.6603	-12.7001	130.098	-17.2379	11.321	189.158	-43.0009	-5.28788	197.625	-41.7086	30.3027	200.042	-12.0356	5.47684	
144	1.2	173.349	17.2306	19.39	142.382	16.5748	-7.2615	126.127	1.29517	-29.4047	117.225	-20.4437	-40.5225	179.817	3.44968	-59.7807	166.011	1.41333	-83.0301	155.867	4.75023	-102.177	179.801	-15.3757	-59.705	162.061	-15.7753	-86.492	141.374	-13.1348	-108.895	158.243	-33.7894	-46.8932	130.213	-30.8641	-41.6501	128.837	-19.42	-6.3892	153.464	-51.4694	-30.523	129.225	-35.183	-21.0174	135.65	-24.8384	1.98026	198.705	-36.0706	-6.3549	206.532	-34.968	29.6491	207.382	-4.15317	5.78824	
145	1.20833	170.747	15.8226	18.9149	146.328	10.0744	-10.9248	132.089	-2.99392	-34.7367	132.268	-25.7173	-48.8823	187.058	8.90346	-57.9946	178.148	10.5262	-80.2514	168.418	10.6627	-103.978	193.181	-7.7592	-60.3081	179.664	-6.84252	-87.1272	161.436	-9.05852	-113.063	175.849	-29.6004	-50.9194	143.549	-33.1162	-48.3946	138.743	-28.3004	-14.8512	173.67	-47.917	-35.8766	146.098	-42.8302	-30.677	146.082	-34.7595	-0.386082	211.825	-30.5467	-2.67568	214.339	-28.9058	28.2436	209.824	2.10023	10.5667	
146	1.21667	169.383	13.0416	16.9327	149.959	5.44552	-9.02545	143.441	-8.04633	-39.4603	147.535	-28.035	-51.3593	191.665	20.2194	-56.4823	184.421	20.3344	-76.6132	178.688	14.2399	-104.783	200.932	1.73609	-58.7974	190.813	1.35559	-87.3819	175.544	-1.63851	-117.602	190.785	-25.7481	-50.1545	160.246	-35.9592	-52.2146	150.428	-34.6502	-21.5095	188.153	-45.73	-40.9045	161.104	-44.867	-33.4331	160.396	-33.8651	-5.58148	221.724	-15.7756	-4.14549	220.385	-22.7556	28.0076	207.882	9.37876	16.1895	
147	1.225	166.289	8.46373	17.7592	152.126	-1.33023	-11.5912	152.961	-13.4764	-40.6471	165.817	-30.72	-54.0637	195.6	21.6074	-50.6604	191.544	22.7786	-77.0023	187.465	20.6726	-103.813	209.373	8.18064	-59.4849	199.769	10.4073	-88.1612	187.855	8.54171	-117.345	202.766	-18.9411	-51.0886	179.104	-37.3634	-56.9893	165.821	-40.211	-25.3135	207.152	-37.2931	-38.7135	181.159	-48.5878	-36.6821	172.728	-42.8086	-8.11995	226.954	-7.07773	1.35	224.553	-12.9277	29.0413	206.483	12.3757	19.2918	
148	1.23333	168.204	0.363628	16.4594	156.545	-8.53784	-17.9187	163.768	-18.8573	-48.2783	181.087	-33.7306	-58.6361	197.416	26.1359	-51.7695	197.113	25.0885	-79.1781	195.065	26.6121	-104.055	213.34	15.6565	-57.1517	210.911	15.2346	-82.0332	204.593	12.4948	-116.092	213.653	-14.1334	-52.5791	197.153	-38.3477	-59.3408	181.444	-42.0752	-29.1196	220.511	-35.0948	-41.3105	196.947	-51.0294	-35.0121	189.29	-40.9341	-6.81705	231.277	-1.41075	1.79147	227.579	-7.08583	33.8182	206.146	15.1036	20.6792	
149	1.24167	168.191	-6.58332	13.402	163.58	-16.1749	-18.3514	174.444	-25.0928	-52.1076	198.741	-35.504	-57.4344	203.471	24.4911	-49.5266	203.958	25.7982	-74.7592	206.883	26.9389	-99.4179	219.208	19.0627	-53.0741	218.087	19.5118	-81.4203	218.682	18.3151	-114.615	224.602	-10.0363	-50.588	212.943	-34.9042	-60.4502	196.949	-44.1494	-28.0114	232.648	-30.719	-39.7979	212.185	-48.965	-36.6907	201.778	-41.8908	-8.15653	233.792	4.81673	5.89873	231.585	-4.3814	35.6076	201.54	16.0015	18.4127	
150	1.25	174.688	-11.982	11.09	174.073	-20.5854	-25.436	187.008	-28.3529	-51.6522	212.052	-35.5368	-62.788	205.351	25.4535	-49.9169	206.985	29.4536	-75.146	212.035	30.5802	-104.901	227.221	20.4269	-54.8905	228.381	21.6142	-83.5002	229.708	21.7561	-114.759	235.899	-8.03008	-48.5962	224.027	-37.1414	-59.8707	209.269	-45.2241	-33.6545	243.826	-24.9175	-37.0421	227.93	-46.9623	-39.2869	213.935	-44.2147	-9.33815	237.463	8.57441	5.08037	232.811	-1.29741	34.4667	205.154	13.7719	16.8174	
151	1.25833	181.438	-13.1148	5.68227	181.016	-23.9742	-28.3924	201.499	-27.3144	-53.7116	224.454	-34.8078	-60.7096	211.435	25.5569	-50.4655	218.66	28.4829	-75.0848	224.692	31.7491	-104.328	235.106	21.1856	-52.0398	236.157	24.2505	-80.8124	236.242	25.5706	-111.548	247.62	-9.31402	-52.4977	236.63	-37.0715	-59.4523	222.708	-44.9813	-33.2303	257.572	-25.6182	-36.5908	236.802	-46.7031	-37.8098	225.545	-41.2444	-8.85981	242.425	8.75967	6.07919	240.438	-3.64836	38.5765	209.469	12.2504	16.1292	
152	1.26667	192.314	-14.2563	5.2757	190.149	-23.3598	-29.3482	210.582	-27.9649	-60.1286	234.844	-32.9915	-63.9092	224.129	25.4132	-51.1666	228.496	31.0368	-77.8432	235.44	32.9558	-102.956	245.437	24.351	-57.509	244.901	26.1781	-83.3612	252.528	26.6188	-112.908	255.938	-6.04937	-48.8825	246.346	-31.0257	-61.7263	230.156	-42.253	-34.4905	263.67	-21.8543	-35.9456	246.657	-46.5071	-35.252	234.872	-40.6428	-11.7792	254.442	9.67485	7.53536	241.651	-2.25024	36.7507	214.514	12.0957	16.0327	
153	1.275	197.885	-11.9714	4.85786	199.207	-19.9797	-32.9015	220.65	-24.7881	-61.0377	244.622	-32.9831	-65.7484	231.646	29.814	-55.5919	239.875	33.7035	-79.1586	248.982	35.5682	-101.924	252.199	26.0101	-53.175	259.547	27.7222	-84.8805	262.296	30.0418	-115.84	264.416	-3.57417	-52.5873	256.333	-31.6734	-59.8547	241.053	-40.7186	-32.1964	273.59	-20.1939	-37.0142	255.759	-42.4828	-36.5424	241.159	-34.5454	-11.7981	261.185	12.1589	5.47961	252.778	3.6101	33.5675	224.216	14.1564	14.9939	
